<svg width="32" height="32" viewBox="0 0 32 32" fill="none" xmlns="http://www.w3.org/2000/svg">
<path d="M21.2666 0C25.0632 0 26.9613 0.000415857 28.4062 0.750977C29.6239 1.38348 30.6165 2.37613 31.249 3.59375C31.9996 5.03867 32 6.93682 32 10.7334V21.2666C32 25.0632 31.9996 26.9613 31.249 28.4062C30.6165 29.6239 29.6239 30.6165 28.4062 31.249C26.9613 31.9996 25.0632 32 21.2666 32H18.667V20.4443H22.2227L22.9336 16H18.667V12.8887C18.667 11.6444 19.1112 10.6671 21.0664 10.667H23.1113V6.57812C21.9558 6.40035 20.7112 6.22267 19.5557 6.22266C15.9112 6.22266 13.333 8.4444 13.333 12.4443V16H9.33301V20.4443H13.333V32H10.7334C6.93682 32 5.03867 31.9996 3.59375 31.249C2.37613 30.6165 1.38348 29.6239 0.750977 28.4062C0.000415857 26.9613 0 25.0632 0 21.2666V10.7334C0 6.93682 0.000415207 5.03867 0.750977 3.59375C1.38348 2.37613 2.37613 1.38348 3.59375 0.750977C5.03867 0.000415207 6.93682 0 10.7334 0H21.2666Z" fill="#808B96"/>
</svg>
