<svg width="30" height="30" viewBox="0 0 30 30" fill="none" xmlns="http://www.w3.org/2000/svg">
<rect width="30" height="30" rx="15" fill="#CDF0D6"/>
<path d="M9.30749 18.5625C9.12749 20.73 10.7625 22.5 12.9375 22.5H16.53C18.975 22.5 20.655 20.5275 20.25 18.1125C19.8225 15.5775 17.3775 13.5 14.805 13.5C12.015 13.5 9.53999 15.78 9.30749 18.5625Z" stroke="#34C759" stroke-linecap="round" stroke-linejoin="round"/>
<path d="M13.8525 11.625C14.8881 11.625 15.7275 10.7855 15.7275 9.75C15.7275 8.71447 14.8881 7.875 13.8525 7.875C12.817 7.875 11.9775 8.71447 11.9775 9.75C11.9775 10.7855 12.817 11.625 13.8525 11.625Z" stroke="#34C759" stroke-linecap="round" stroke-linejoin="round"/>
<path d="M18.9746 12.525C19.803 12.525 20.4746 11.8534 20.4746 11.025C20.4746 10.1966 19.803 9.52499 18.9746 9.52499C18.1462 9.52499 17.4746 10.1966 17.4746 11.025C17.4746 11.8534 18.1462 12.525 18.9746 12.525Z" stroke="#34C759" stroke-linecap="round" stroke-linejoin="round"/>
<path d="M21.75 15.525C22.3713 15.525 22.875 15.0213 22.875 14.4C22.875 13.7787 22.3713 13.275 21.75 13.275C21.1287 13.275 20.625 13.7787 20.625 14.4C20.625 15.0213 21.1287 15.525 21.75 15.525Z" stroke="#34C759" stroke-linecap="round" stroke-linejoin="round"/>
<path d="M8.97754 14.025C9.80597 14.025 10.4775 13.3534 10.4775 12.525C10.4775 11.6966 9.80597 11.025 8.97754 11.025C8.14911 11.025 7.47754 11.6966 7.47754 12.525C7.47754 13.3534 8.14911 14.025 8.97754 14.025Z" stroke="#34C759" stroke-linecap="round" stroke-linejoin="round"/>
</svg>
