<svg width="32" height="32" viewBox="0 0 32 32" fill="none" xmlns="http://www.w3.org/2000/svg">
<g clip-path="url(#clip0_75_958)">
<path d="M21.2852 0C25.0816 4.54843e-10 26.9799 0.000417965 28.4248 0.750977C29.6423 1.38349 30.6351 2.37621 31.2676 3.59375C32.0181 5.03865 32.0186 6.93694 32.0186 10.7334V21.2666C32.0186 25.0631 32.0181 26.9613 31.2676 28.4062C30.6351 29.6238 29.6423 30.6165 28.4248 31.249C26.9799 31.9996 25.0816 32 21.2852 32H10.752C6.95535 32 5.05625 31.9996 3.61133 31.249C2.39392 30.6165 1.40098 29.6237 0.768555 28.4062C0.018128 26.9614 0.0185547 25.063 0.0185547 21.2666V10.7334C0.0185547 6.93705 0.0181273 5.03864 0.768555 3.59375C1.40098 2.37628 2.39392 1.38349 3.61133 0.750977C5.05625 0.000399488 6.95535 0 10.752 0H21.2852ZM15.998 4.36328C12.8401 4.36329 12.443 4.37712 11.2021 4.43359C9.96359 4.49034 9.11772 4.68688 8.37793 4.97461C7.61284 5.27178 6.964 5.66956 6.31738 6.31641C5.67013 6.96319 5.27181 7.61284 4.97363 8.37793C4.68528 9.11792 4.48934 9.96416 4.43359 11.2021C4.3781 12.443 4.36328 12.8401 4.36328 16C4.36328 19.1602 4.37735 19.5557 4.43359 20.7969C4.49056 22.0357 4.6871 22.8812 4.97461 23.6211C5.27205 24.3864 5.66942 25.0359 6.31641 25.6826C6.96289 26.3298 7.61217 26.7282 8.37695 27.0254C9.11722 27.3131 9.96287 27.5097 11.2012 27.5664C12.4423 27.6229 12.8391 27.6367 15.999 27.6367C19.1593 27.6367 19.5548 27.6229 20.7959 27.5664C22.0345 27.5097 22.8808 27.3131 23.6211 27.0254C24.3862 26.7282 25.0351 26.3299 25.6816 25.6826C26.3289 25.0358 26.7262 24.3862 27.0244 23.6211C27.3104 22.881 27.5063 22.035 27.5645 20.7969C27.6202 19.5558 27.6348 19.1601 27.6348 16C27.6348 12.8399 27.6202 12.4432 27.5645 11.2021C27.5063 9.96348 27.3104 9.11776 27.0244 8.37793C26.7263 7.61266 26.3288 6.96314 25.6816 6.31641C25.0345 5.66921 24.387 5.27157 23.6211 4.97461C22.8793 4.68685 22.0327 4.49032 20.7939 4.43359C19.5532 4.37713 19.1578 4.36329 15.998 4.36328ZM14.957 6.46094C15.2666 6.46045 15.612 6.46094 16 6.46094C19.1066 6.46094 19.4754 6.47159 20.7021 6.52734C21.8364 6.57921 22.4521 6.76946 22.8623 6.92871C23.4053 7.13962 23.7932 7.39156 24.2002 7.79883C24.6073 8.20597 24.859 8.59388 25.0703 9.13672C25.2296 9.54642 25.42 10.1623 25.4717 11.2969C25.5274 12.5234 25.5391 12.892 25.5391 15.9971C25.5391 19.1025 25.5274 19.4716 25.4717 20.6982C25.4198 21.8326 25.2296 22.4487 25.0703 22.8584C24.8595 23.401 24.6071 23.7875 24.2002 24.1943C23.7929 24.6016 23.4056 24.8545 22.8623 25.0654C22.4526 25.2254 21.8362 25.414 20.7021 25.4658C19.4757 25.5216 19.1067 25.5342 16 25.5342C12.8936 25.5342 12.5252 25.5216 11.2988 25.4658C10.1643 25.4135 9.54811 25.2237 9.1377 25.0645C8.5948 24.8536 8.20701 24.6016 7.7998 24.1943C7.39262 23.7871 7.14007 23.4005 6.92871 22.8574C6.76946 22.4478 6.57997 21.8316 6.52832 20.6973C6.47256 19.4706 6.46094 19.1015 6.46094 15.9941C6.46094 12.8871 6.47257 12.5205 6.52832 11.2939C6.58018 10.1598 6.76948 9.54397 6.92871 9.13379C7.13961 8.59076 7.39254 8.20219 7.7998 7.79492C8.20693 7.38782 8.5949 7.13615 9.1377 6.9248C9.54786 6.7648 10.1643 6.57556 11.2988 6.52344C12.372 6.47496 12.7886 6.46043 14.957 6.45801V6.46094ZM16 10.0244C12.7002 10.0246 10.0244 12.7 10.0244 16C10.0244 19.3 12.7002 21.9744 16 21.9746C19.3 21.9746 21.9746 19.3001 21.9746 16C21.9746 12.6999 19.3 10.0244 16 10.0244ZM16 12.1211C18.142 12.1211 19.8789 13.8577 19.8789 16C19.8789 18.1421 18.142 19.8789 16 19.8789C13.858 19.8787 12.1221 18.1419 12.1221 16C12.1221 13.8578 13.858 12.1213 16 12.1211ZM22.0693 8.40039C21.3653 8.47168 20.8154 9.06598 20.8154 9.78906C20.8157 10.5598 21.4412 11.1846 22.2119 11.1846C22.9825 11.1844 23.6082 10.5597 23.6084 9.78906C23.6084 9.01825 22.9827 8.39273 22.2119 8.39258L22.0693 8.40039Z" fill="#808B96"/>
</g>
<defs>
<clipPath id="clip0_75_958">
<rect width="32" height="32" fill="white"/>
</clipPath>
</defs>
</svg>
