<svg width="32" height="32" viewBox="0 0 32 32" fill="none" xmlns="http://www.w3.org/2000/svg">
<g clip-path="url(#clip0_75_966)">
<path d="M21.2666 0C25.0632 0 26.9613 0.000415857 28.4062 0.750977C29.6239 1.38348 30.6165 2.37613 31.249 3.59375C31.9996 5.03867 32 6.93682 32 10.7334V21.2666C32 25.0632 31.9996 26.9613 31.249 28.4062C30.6165 29.6239 29.6239 30.6165 28.4062 31.249C26.9613 31.9996 25.0632 32 21.2666 32H10.7334C6.93682 32 5.03867 31.9996 3.59375 31.249C2.37613 30.6165 1.38348 29.6239 0.750977 28.4062C0.000415857 26.9613 0 25.0632 0 21.2666V10.7334C0 6.93682 0.000415207 5.03867 0.750977 3.59375C1.38348 2.37613 2.37613 1.38348 3.59375 0.750977C5.03867 0.000415207 6.93682 0 10.7334 0H21.2666ZM25.8271 9.04199C26.163 7.6954 25.3135 7.08503 24.4336 7.48438L5.16895 14.915C3.85405 15.4426 3.86129 16.1759 4.92871 16.5029L9.7334 18.002L11.5723 23.6387C11.7957 24.2555 11.6855 24.5009 12.333 24.501C12.8327 24.501 13.0548 24.2728 13.333 24.001C13.5101 23.8277 14.5616 22.8053 15.7354 21.6641L20.7334 25.3564C21.6531 25.8638 22.3179 25.6006 22.5469 24.502L25.8271 9.04199ZM21.3184 10.8252C21.8589 10.4975 22.3542 10.6739 21.9473 11.0352L12.6738 19.4014L12.3125 23.2529L10.4873 17.6582L21.3184 10.8252Z" fill="#808B96"/>
</g>
<defs>
<clipPath id="clip0_75_966">
<rect width="32" height="32" fill="white"/>
</clipPath>
</defs>
</svg>
