<svg width="32" height="32" viewBox="0 0 32 32" fill="none" xmlns="http://www.w3.org/2000/svg">
<path d="M21.2666 0C25.0632 0 26.9613 0.000415857 28.4062 0.750977C29.6239 1.38348 30.6165 2.37613 31.249 3.59375C31.9996 5.03867 32 6.93682 32 10.7334V21.2666C32 25.0632 31.9996 26.9613 31.249 28.4062C30.6165 29.6239 29.6239 30.6165 28.4062 31.249C26.9613 31.9996 25.0632 32 21.2666 32H10.7334C6.93682 32 5.03867 31.9996 3.59375 31.249C2.37613 30.6165 1.38348 29.6239 0.750977 28.4062C0.000415857 26.9613 0 25.0632 0 21.2666V10.7334C0 6.93682 0.000415207 5.03867 0.750977 3.59375C1.38348 2.37613 2.37613 1.38348 3.59375 0.750977C5.03867 0.000415207 6.93682 0 10.7334 0H21.2666ZM16.3604 4.38086C10.0828 4.38086 4.97331 9.48734 4.9707 15.7637C4.96988 17.7701 5.49453 19.7287 6.49121 21.4551L4.875 27.3535L10.9131 25.7705C12.5765 26.6774 14.4494 27.1555 16.3555 27.1562H16.3604C22.6373 27.1562 27.7474 22.049 27.75 15.7725C27.751 12.7311 26.5671 9.87124 24.417 7.71973C22.4012 5.7026 19.762 4.53482 16.9297 4.39551L16.3604 4.38086ZM16.3643 6.30371C18.8926 6.30455 21.2694 7.28978 23.0566 9.07812C24.8439 10.8665 25.8272 13.2443 25.8262 15.7725C25.824 20.9894 21.5779 25.2334 16.3604 25.2334H16.3564C14.6578 25.2327 12.9915 24.7771 11.5381 23.915L11.1924 23.71L7.61035 24.6494L8.56641 21.1582L8.34082 20.7998C7.39334 19.2935 6.89287 17.5524 6.89355 15.7646C6.89564 10.548 11.1427 6.30371 16.3643 6.30371ZM12.3281 10.5068C12.1384 10.5068 11.8302 10.5785 11.5693 10.8633C11.3084 11.1481 10.5734 11.836 10.5732 13.2354C10.5732 14.635 11.5925 15.9871 11.7354 16.1777C11.8776 16.3676 13.742 19.2405 16.5967 20.4727C17.2755 20.7657 17.8055 20.9412 18.2188 21.0723C18.9005 21.2887 19.5213 21.2578 20.0117 21.1846C20.5586 21.1027 21.6955 20.4962 21.9326 19.832C22.1696 19.1677 22.1698 18.5981 22.0986 18.4795C22.0275 18.3608 21.8372 18.2898 21.5527 18.1475C21.2678 18.0049 19.8692 17.3167 19.6084 17.2217C19.3476 17.1269 19.1574 17.0797 18.9678 17.3643C18.7781 17.649 18.2325 18.2896 18.0664 18.4795C17.9005 18.6693 17.7347 18.6932 17.4502 18.5508C17.1653 18.4084 16.2486 18.1081 15.1621 17.1396C14.3163 16.3856 13.7453 15.454 13.5791 15.1689C13.4131 14.8842 13.5607 14.7297 13.7031 14.5879C13.8312 14.4604 13.9886 14.2559 14.1309 14.0898C14.2729 13.924 14.3202 13.8049 14.415 13.6152C14.5097 13.4255 14.4627 13.2595 14.3916 13.1172C14.3204 12.9747 13.7508 11.5744 13.5137 11.0049C13.2827 10.4506 13.0477 10.5254 12.873 10.5166C12.7074 10.5084 12.5176 10.5068 12.3281 10.5068Z" fill="#808B96"/>
</svg>
